<svg width="129" height="74" viewBox="0 0 129 74" fill="none" xmlns="http://www.w3.org/2000/svg">
<g clip-path="url(#clip0_28_3)">
<path fill-rule="evenodd" clip-rule="evenodd" d="M28.0242 40.5372H29.5263V39.936H30.1893V38.3721H28.0242V40.5372Z" fill="black"/>
<path d="M33.1953 38.3721H31.0302V39.936H33.1953V38.3721Z" fill="black"/>
<path fill-rule="evenodd" clip-rule="evenodd" d="M34.6993 40.5372H36.2631V38.3721H34.0981V39.936H34.6993V40.5372Z" fill="black"/>
<path d="M36.2631 41.44H34.6992V43.605H36.2631V41.44Z" fill="black"/>
<path d="M33.1953 45.1071H31.0302V46.611H33.1953V45.1071Z" fill="black"/>
<path fill-rule="evenodd" clip-rule="evenodd" d="M28.0242 46.613H30.1893V45.1071H29.5263V44.4479H28.0242V46.613Z" fill="black"/>
<path d="M29.5282 41.44H28.0242V43.605H29.5282V41.44Z" fill="black"/>
<path d="M21.0476 47.5157H18.8826V49.6808H21.0476V47.5157Z" fill="black"/>
<path d="M24.1136 47.5157H21.9485V49.6808H24.1136V47.5157Z" fill="black"/>
<path d="M27.1215 44.4479H24.9564V46.613H27.1215V44.4479Z" fill="black"/>
<path d="M39.271 38.3721H37.106V40.5372H39.271V38.3721Z" fill="black"/>
<path d="M42.337 38.3721H40.1719V40.5372H42.337V38.3721Z" fill="black"/>
<path d="M42.337 41.44H40.1719V43.605H42.337V41.44Z" fill="black"/>
<path d="M42.337 44.4479H40.1719V46.613H42.337V44.4479Z" fill="black"/>
<path d="M42.337 47.5157H40.1719V49.6808H42.337V47.5157Z" fill="black"/>
<path d="M42.337 50.5198H40.1719V52.6849H42.337V50.5198Z" fill="black"/>
<path d="M42.337 53.5895H40.1719V55.7527H42.337V53.5895Z" fill="black"/>
<path d="M21.0476 44.4479H18.8826V46.613H21.0476V44.4479Z" fill="black"/>
<path d="M21.0477 41.44H19.9651V42.5225H21.0477V41.44Z" fill="black"/>
<path d="M21.0476 38.3721H18.8826V40.5372H21.0476V38.3721Z" fill="black"/>
<path d="M18.0397 38.3721H15.8147V40.5372H18.0397V38.3721Z" fill="black"/>
<path d="M18.0397 41.3201H16.4159V42.9439H18.0397V41.3201Z" fill="black"/>
<path d="M15.8747 41.44H14.7921V42.5225H15.8747V41.44Z" fill="black"/>
<path d="M23.5723 35.3642H21.9485V36.988H23.5723V35.3642Z" fill="black"/>
<path d="M24.1136 38.3721H21.9485V40.5372H24.1136V38.3721Z" fill="black"/>
<path d="M23.6322 41.44H21.9485V43.1836H23.6322V41.44Z" fill="black"/>
<path d="M23.5723 32.8376H21.9485V34.4615H23.5723V32.8376Z" fill="black"/>
<path d="M23.5723 26.7638H21.9485V28.3876H23.5723V26.7638Z" fill="black"/>
<path d="M21.0476 35.3642H18.8826V37.5293H21.0476V35.3642Z" fill="black"/>
<path d="M18.0398 36.4468H16.9572V37.5293H18.0398V36.4468Z" fill="black"/>
<path d="M21.0476 32.2983H18.8826V34.4634H21.0476V32.2983Z" fill="black"/>
<path d="M14.9719 35.3642H12.8068V37.5293H14.9719V35.3642Z" fill="black"/>
<path d="M16.9572 33.3809H15.8147V34.4634H16.9572V33.3809Z" fill="black"/>
<path d="M11.9659 35.3642H9.74091V37.5293H11.9659V35.3642Z" fill="black"/>
<path d="M14.9719 32.2983H12.8068V34.4634H14.9719V32.2983Z" fill="black"/>
<path d="M11.9659 30.6745H10.2822V32.2983H11.9659V30.6745Z" fill="black"/>
<path d="M14.9719 7.99919H12.8068V10.1643H14.9719V7.99919Z" fill="black"/>
<path d="M13.8894 11.067H12.8068V12.1496H13.8894V11.067Z" fill="black"/>
<path d="M14.9719 4.99321H12.8068V7.15829H14.9719V4.99321Z" fill="black"/>
<path d="M18.0397 7.99919H15.8147V10.1643H18.0397V7.99919Z" fill="black"/>
<path d="M18.0397 4.99321H15.8147V7.15829H18.0397V4.99321Z" fill="black"/>
<path d="M11.9659 4.99321H9.74091V7.15829H11.9659V4.99321Z" fill="black"/>
<path d="M8.89807 5.53448H7.27426V7.15829H8.89807V5.53448Z" fill="black"/>
<path d="M9.80083 3.00792H8.71829V4.09046H9.80083V3.00792Z" fill="black"/>
<path d="M11.9659 3.00792H10.8834V4.09046H11.9659V3.00792Z" fill="black"/>
<path d="M11.9659 7.99919H9.74091V10.1643H11.9659V7.99919Z" fill="black"/>
<path d="M11.9659 32.8376H10.2822V34.4615H11.9659V32.8376Z" fill="black"/>
<path d="M21.0476 29.2904H18.8826V31.4555H21.0476V29.2904Z" fill="black"/>
<path d="M23.031 29.2904H21.9485V30.373H23.031V29.2904Z" fill="black"/>
<path d="M18.0397 27.8464H16.4159V29.4702H18.0397V27.8464Z" fill="black"/>
<path d="M18.0398 30.373H16.9572V31.4574H18.0398V30.373Z" fill="black"/>
<path d="M21.0476 26.2226H18.8826V28.3877H21.0476V26.2226Z" fill="black"/>
<path d="M21.0476 23.2166H18.8826V25.3817H21.0476V23.2166Z" fill="black"/>
<path d="M24.1136 44.4479H21.9485V46.613H24.1136V44.4479Z" fill="black"/>
<path d="M27.1215 41.44H24.9564V43.605H27.1215V41.44Z" fill="black"/>
<path d="M36.2631 35.3642H34.0981V37.5293H36.2631V35.3642Z" fill="black"/>
<path d="M38.1885 35.3642H37.106V36.4468H38.1885V35.3642Z" fill="black"/>
<path d="M36.2631 32.2983H34.0981V34.4634H36.2631V32.2983Z" fill="black"/>
<path d="M36.2631 26.2226H34.0981V28.3877H36.2631V26.2226Z" fill="black"/>
<path d="M39.271 23.2166H37.106V25.3817H39.271V23.2166Z" fill="black"/>
<path d="M39.271 26.2226H37.6472V27.8464H39.271V26.2226Z" fill="black"/>
<path d="M42.337 20.1488H40.1719V22.3138H42.337V20.1488Z" fill="black"/>
<path d="M42.337 23.2166H40.1719V25.3817H42.337V23.2166Z" fill="black"/>
<path d="M42.337 26.2226H40.1719V28.3877H42.337V26.2226Z" fill="black"/>
<path d="M42.337 29.2904H40.1719V31.4555H42.337V29.2904Z" fill="black"/>
<path d="M39.271 29.2904H37.6472V30.9142H39.271V29.2904Z" fill="black"/>
<path d="M42.337 32.2983H40.1719V34.4634H42.337V32.2983Z" fill="black"/>
<path d="M45.3449 17.1428H43.1798V19.3079H45.3449V17.1428Z" fill="black"/>
<path d="M44.2623 20.1488H43.1798V21.2313H44.2623V20.1488Z" fill="black"/>
<path d="M44.8036 23.7579H43.1798V25.3817H44.8036V23.7579Z" fill="black"/>
<path d="M45.3449 26.2226H43.1798V28.3877H45.3449V26.2226Z" fill="black"/>
<path d="M45.3449 29.2904H43.1798V31.4555H45.3449V29.2904Z" fill="black"/>
<path d="M33.1972 26.2226H32.1127V27.3051H33.1972V26.2226Z" fill="black"/>
<path d="M36.2631 23.2166H34.0981V25.3817H36.2631V23.2166Z" fill="black"/>
<path d="M39.271 20.1488H37.106V22.3138H39.271V20.1488Z" fill="black"/>
<path d="M42.337 17.1428H40.1719V19.3079H42.337V17.1428Z" fill="black"/>
<path d="M45.3449 14.0749H43.1798V16.24H45.3449V14.0749Z" fill="black"/>
<path d="M33.1953 23.2166H31.0302V25.3817H33.1953V23.2166Z" fill="black"/>
<path d="M36.2631 20.1488H34.0981V22.3138H36.2631V20.1488Z" fill="black"/>
<path d="M39.271 17.1428H37.106V19.3079H39.271V17.1428Z" fill="black"/>
<path d="M42.337 14.0749H40.1719V16.24H42.337V14.0749Z" fill="black"/>
<path d="M45.3449 11.067H43.1798V13.2321H45.3449V11.067Z" fill="black"/>
<path d="M33.1953 20.1488H31.0302V22.3138H33.1953V20.1488Z" fill="black"/>
<path d="M36.2631 17.1428H34.0981V19.3079H36.2631V17.1428Z" fill="black"/>
<path d="M39.271 14.0749H37.106V16.24H39.271V14.0749Z" fill="black"/>
<path d="M42.337 11.067H40.1719V13.2321H42.337V11.067Z" fill="black"/>
<path d="M45.3449 7.99919H43.1798V10.1643H45.3449V7.99919Z" fill="black"/>
<path d="M42.3389 8.54047H40.7151V10.1643H42.3389V8.54047Z" fill="black"/>
<path d="M45.3449 4.99321H43.1798V7.15829H45.3449V4.99321Z" fill="black"/>
<path d="M48.4127 4.99321H46.2476V7.15829H48.4127V4.99321Z" fill="black"/>
<path d="M51.4187 1.92537H49.2536V4.09045H51.4187V1.92537Z" fill="black"/>
<path d="M54.4865 1.92537H52.3214V4.09045H54.4865V1.92537Z" fill="black"/>
<path d="M54.4865 4.99321H52.3214V7.15829H54.4865V4.99321Z" fill="black"/>
<path d="M54.4865 7.99919H52.3214V10.1643H54.4865V7.99919Z" fill="black"/>
<path d="M54.4865 11.067H52.3214V13.2321H54.4865V11.067Z" fill="black"/>
<path d="M57.4944 7.99919H55.3293V10.1643H57.4944V7.99919Z" fill="black"/>
<path d="M57.4944 4.99321H55.3293V7.15829H57.4944V4.99321Z" fill="black"/>
<path d="M60.5603 4.99321H58.3953V7.15829H60.5603V4.99321Z" fill="black"/>
<path d="M63.5682 4.99321H61.4032V7.15829H63.5682V4.99321Z" fill="black"/>
<path d="M62.4857 7.99919H61.4032V9.08173H62.4857V7.99919Z" fill="black"/>
<path d="M60.5623 7.99919H59.4797V9.08173H60.5623V7.99919Z" fill="black"/>
<path d="M57.4944 11.067H55.3293V13.2321H57.4944V11.067Z" fill="black"/>
<path d="M60.5603 11.067H58.3953V13.2321H60.5603V11.067Z" fill="black"/>
<path d="M63.5682 11.067H61.4032V13.2321H63.5682V11.067Z" fill="black"/>
<path d="M66.6361 7.99919H64.471V10.1643H66.6361V7.99919Z" fill="black"/>
<path d="M66.6361 11.067H64.471V13.2321H66.6361V11.067Z" fill="black"/>
<path d="M69.6421 11.067H67.477V13.2321H69.6421V11.067Z" fill="black"/>
<path d="M72.7099 7.99919H70.5448V10.1643H72.7099V7.99919Z" fill="black"/>
<path d="M72.7118 6.07574H71.6273V7.15828H72.7118V6.07574Z" fill="black"/>
<path d="M69.6421 7.99919H67.477V10.1643H69.6421V7.99919Z" fill="black"/>
<path d="M69.1027 5.53448H67.477V7.15829H69.1027V5.53448Z" fill="black"/>
<path d="M57.4944 14.0749H55.3293V16.24H57.4944V14.0749Z" fill="black"/>
<path d="M60.5603 14.0749H58.3953V16.24H60.5603V14.0749Z" fill="black"/>
<path d="M63.5682 14.0749H61.4032V16.24H63.5682V14.0749Z" fill="black"/>
<path d="M66.6361 14.0749H64.471V16.24H66.6361V14.0749Z" fill="black"/>
<path d="M69.6421 14.0749H67.477V16.24H69.6421V14.0749Z" fill="black"/>
<path d="M72.7099 14.0749H70.5448V16.24H72.7099V14.0749Z" fill="black"/>
<path d="M57.4944 17.1428H55.3293V19.3079H57.4944V17.1428Z" fill="black"/>
<path d="M60.5603 17.1428H58.3953V19.3079H60.5603V17.1428Z" fill="black"/>
<path d="M63.5682 17.1428H61.4032V19.3079H63.5682V17.1428Z" fill="black"/>
<path d="M66.6361 17.1428H64.471V19.3079H66.6361V17.1428Z" fill="black"/>
<path d="M69.6421 17.1428H67.477V19.3079H69.6421V17.1428Z" fill="black"/>
<path d="M72.7099 17.1428H70.5448V19.3079H72.7099V17.1428Z" fill="black"/>
<path d="M57.4944 20.1488H55.3293V22.3138H57.4944V20.1488Z" fill="black"/>
<path d="M60.5603 20.1488H58.3953V22.3138H60.5603V20.1488Z" fill="black"/>
<path d="M63.5682 20.1488H61.4032V22.3138H63.5682V20.1488Z" fill="black"/>
<path d="M66.6361 20.1488H64.471V22.3138H66.6361V20.1488Z" fill="black"/>
<path d="M75.7178 20.1488H73.5527V22.3138H75.7178V20.1488Z" fill="black"/>
<path d="M78.2444 17.1408H76.6206V18.7646H78.2444V17.1408Z" fill="black"/>
<path d="M57.4944 23.2166H55.3293V25.3817H57.4944V23.2166Z" fill="black"/>
<path d="M54.4865 26.2226H52.3214V28.3877H54.4865V26.2226Z" fill="black"/>
<path d="M51.4187 26.2226H49.7949V27.8464H51.4187V26.2226Z" fill="black"/>
<path d="M51.4187 29.2904H49.2536V31.4555H51.4187V29.2904Z" fill="black"/>
<path d="M48.4127 33.3809H47.3301V34.4634H48.4127V33.3809Z" fill="black"/>
<path d="M60.5603 23.2166H58.3953V25.3817H60.5603V23.2166Z" fill="black"/>
<path d="M63.5682 23.2166H61.4032V25.3817H63.5682V23.2166Z" fill="black"/>
<path d="M66.6361 23.2166H64.471V25.3817H66.6361V23.2166Z" fill="black"/>
<path d="M69.6421 23.2166H67.477V25.3817H69.6421V23.2166Z" fill="black"/>
<path d="M72.7099 23.2166H70.5448V25.3817H72.7099V23.2166Z" fill="black"/>
<path d="M57.4944 26.2226H55.3293V28.3877H57.4944V26.2226Z" fill="black"/>
<path d="M54.4865 29.2904H52.3214V31.4555H54.4865V29.2904Z" fill="black"/>
<path d="M51.4187 32.2983H49.2536V34.4634H51.4187V32.2983Z" fill="black"/>
<path d="M60.5603 26.2226H58.3953V28.3877H60.5603V26.2226Z" fill="black"/>
<path d="M63.5682 26.2226H61.4032V28.3877H63.5682V26.2226Z" fill="black"/>
<path d="M66.6361 26.2226H64.471V28.3877H66.6361V26.2226Z" fill="black"/>
<path d="M69.6421 26.2226H67.477V28.3877H69.6421V26.2226Z" fill="black"/>
<path d="M75.7178 26.2226H73.5527V28.3877H75.7178V26.2226Z" fill="black"/>
<path d="M78.7857 26.2226H76.6206V28.3877H78.7857V26.2226Z" fill="black"/>
<path d="M57.4944 29.2904H55.3293V31.4555H57.4944V29.2904Z" fill="black"/>
<path d="M54.4865 32.2983H52.3214V34.4634H54.4865V32.2983Z" fill="black"/>
<path d="M51.4187 35.3642H49.2536V37.5293H51.4187V35.3642Z" fill="black"/>
<path d="M51.4206 38.3721H50.3381V39.4547H51.4206V38.3721Z" fill="black"/>
<path d="M48.4127 35.9074H46.7889V37.5312H48.4127V35.9074Z" fill="black"/>
<path d="M60.5603 29.2904H58.3953V31.4555H60.5603V29.2904Z" fill="black"/>
<path d="M63.5682 29.2904H61.4032V31.4555H63.5682V29.2904Z" fill="black"/>
<path d="M66.6361 29.2904H64.471V31.4555H66.6361V29.2904Z" fill="black"/>
<path d="M69.6421 29.2904H67.477V31.4555H69.6421V29.2904Z" fill="black"/>
<path d="M57.4944 32.2983H55.3293V34.4634H57.4944V32.2983Z" fill="black"/>
<path d="M54.4865 35.3642H52.3214V37.5293H54.4865V35.3642Z" fill="black"/>
<path d="M53.404 38.3721H52.3214V39.4547H53.404V38.3721Z" fill="black"/>
<path d="M48.4127 59.6634H46.2476V61.8284H48.4127V59.6634Z" fill="black"/>
<path d="M45.3449 38.3721H43.1798V40.5372H45.3449V38.3721Z" fill="black"/>
<path d="M47.9913 38.3721H46.2476V40.1158H47.9913V38.3721Z" fill="black"/>
<path d="M45.3449 41.44H43.1798V43.605H45.3449V41.44Z" fill="black"/>
<path d="M45.3449 44.4479H43.1798V46.613H45.3449V44.4479Z" fill="black"/>
<path d="M45.3449 47.5157H43.1798V49.6808H45.3449V47.5157Z" fill="black"/>
<path d="M45.3449 50.5198H43.1798V52.6849H45.3449V50.5198Z" fill="black"/>
<path d="M45.3449 53.5895H43.1798V55.7527H45.3449V53.5895Z" fill="black"/>
<path d="M45.3449 56.5955H43.1798V58.7606H45.3449V56.5955Z" fill="black"/>
<path d="M45.3448 59.6634H43.721V61.2872H45.3448V59.6634Z" fill="black"/>
<path d="M42.3369 56.5955H41.2544V57.68H42.3369V56.5955Z" fill="black"/>
<path d="M60.5603 32.2983H58.3953V34.4634H60.5603V32.2983Z" fill="black"/>
<path d="M63.5682 32.2983H61.4032V34.4634H63.5682V32.2983Z" fill="black"/>
<path d="M66.6361 32.2983H64.471V34.4634H66.6361V32.2983Z" fill="black"/>
<path d="M69.6421 32.2983H67.477V34.4634H69.6421V32.2983Z" fill="black"/>
<path d="M72.7099 32.2983H70.5448V34.4634H72.7099V32.2983Z" fill="black"/>
<path d="M78.7857 32.2983H76.6206V34.4634H78.7857V32.2983Z" fill="black"/>
<path d="M57.4944 35.3642H55.3293V37.5293H57.4944V35.3642Z" fill="black"/>
<path d="M60.5603 35.3642H58.3953V37.5293H60.5603V35.3642Z" fill="black"/>
<path d="M63.5682 35.3642H61.4032V37.5293H63.5682V35.3642Z" fill="black"/>
<path d="M66.6361 35.3642H64.471V37.5293H66.6361V35.3642Z" fill="black"/>
<path d="M69.6421 35.3642H67.477V37.5293H69.6421V35.3642Z" fill="black"/>
<path d="M72.7099 35.3642H70.5448V37.5293H72.7099V35.3642Z" fill="black"/>
<path d="M51.4187 62.6693H49.2536V64.8943H51.4187V62.6693Z" fill="black"/>
<path d="M68.5615 59.6634H67.477V60.7459H68.5615V59.6634Z" fill="black"/>
<path d="M54.4865 62.6693H52.3214V64.8943H54.4865V62.6693Z" fill="black"/>
<path d="M51.4187 65.7372H49.2536V67.9023H51.4187V65.7372Z" fill="black"/>
<path d="M60.0191 38.3721H58.3953V39.9959H60.0191V38.3721Z" fill="black"/>
<path d="M66.6361 59.6634H64.471V61.8284H66.6361V59.6634Z" fill="black"/>
<path d="M63.5682 60.2047H61.9444V61.8285H63.5682V60.2047Z" fill="black"/>
<path d="M57.4944 62.6693H55.3293V64.8943H57.4944V62.6693Z" fill="black"/>
<path d="M54.4865 65.7372H52.3214V67.9023H54.4865V65.7372Z" fill="black"/>
<path d="M54.4865 68.7451H52.3214V70.9701H54.4865V68.7451Z" fill="black"/>
<path d="M54.4865 71.8129H52.3214V73.9761H54.4865V71.8129Z" fill="black"/>
<path d="M56.4119 71.8129H55.3293V72.8955H56.4119V71.8129Z" fill="black"/>
<path d="M57.4944 68.7451H55.3293V70.9701H57.4944V68.7451Z" fill="black"/>
<path d="M56.4119 66.8197H55.3293V67.9042H56.4119V66.8197Z" fill="black"/>
<path d="M51.4206 68.7451H50.3381V69.8876H51.4206V68.7451Z" fill="black"/>
<path d="M59.4778 62.6693H58.3953V63.7519H59.4778V62.6693Z" fill="black"/>
<path d="M54.4865 14.0749H52.3214V16.24H54.4865V14.0749Z" fill="black"/>
<path d="M54.4865 17.1428H52.3214V19.3079H54.4865V17.1428Z" fill="black"/>
<path d="M54.4865 20.1488H52.3214V22.3138H54.4865V20.1488Z" fill="black"/>
<path d="M53.404 23.2166H52.3214V24.2991H53.404V23.2166Z" fill="black"/>
<path d="M51.4187 20.1488H49.2536V22.3138H51.4187V20.1488Z" fill="black"/>
<path d="M49.2536 23.2166H48.1711V24.2991H49.2536V23.2166Z" fill="black"/>
<path d="M51.4187 23.2166H49.7949V24.8404H51.4187V23.2166Z" fill="black"/>
<path d="M51.4187 17.1428H49.2536V19.3079H51.4187V17.1428Z" fill="black"/>
<path d="M51.4187 14.6162H49.7949V16.24H51.4187V14.6162Z" fill="black"/>
<path d="M50.3361 0H49.2536V1.08254H50.3361V0Z" fill="black"/>
<path d="M51.4187 4.99321H49.2536V7.15829H51.4187V4.99321Z" fill="black"/>
<path d="M51.4187 7.99919H49.2536V10.1643H51.4187V7.99919Z" fill="black"/>
<path d="M50.3361 11.067H49.2536V12.1496H50.3361V11.067Z" fill="black"/>
<path d="M48.4127 7.99919H46.2476V10.1643H48.4127V7.99919Z" fill="black"/>
<path d="M48.4127 11.067H46.2476V13.2321H48.4127V11.067Z" fill="black"/>
<path d="M47.8714 14.0749H46.2476V15.6987H47.8714V14.0749Z" fill="black"/>
<path d="M48.4127 1.92537H46.2476V4.09045H48.4127V1.92537Z" fill="black"/>
<path d="M45.3449 3.00792H44.2623V4.09046H45.3449V3.00792Z" fill="black"/>
<path d="M42.3389 5.53448H40.7151V7.15829H42.3389V5.53448Z" fill="black"/>
<path d="M33.1972 18.2253H32.1127V19.3079H33.1972V18.2253Z" fill="black"/>
<path d="M38.1885 33.3809H37.106V34.4634H38.1885V33.3809Z" fill="black"/>
<path d="M36.2631 30.373H35.1806V31.4574H36.2631V30.373Z" fill="black"/>
<path d="M18.2794 47.5737H16.6556V49.1995H18.2794V47.5737Z" fill="black"/>
<path d="M16.7175 44.9892H15.0937V46.613H16.7175V44.9892Z" fill="black"/>
<path d="M18.3413 45.5285H17.2588V46.613H18.3413V45.5285Z" fill="black"/>
<path d="M18.2195 49.6789H17.137V50.7633H18.2195V49.6789Z" fill="black"/>
<path d="M21.0476 50.5198H18.8826V52.6849H21.0476V50.5198Z" fill="black"/>
<path d="M24.1136 50.5198H21.9485V52.6849H24.1136V50.5198Z" fill="black"/>
<path d="M27.1215 47.5157H24.9564V49.6808H27.1215V47.5157Z" fill="black"/>
<path d="M30.1893 47.5157H28.0242V49.6808H30.1893V47.5157Z" fill="black"/>
<path d="M39.271 41.44H37.106V43.605H39.271V41.44Z" fill="black"/>
<path d="M21.0476 53.5895H18.8826V55.7527H21.0476V53.5895Z" fill="black"/>
<path d="M24.1136 53.5895H21.9485V55.7527H24.1136V53.5895Z" fill="black"/>
<path d="M27.1215 50.5198H24.9564V52.6849H27.1215V50.5198Z" fill="black"/>
<path d="M30.1893 50.5198H28.0242V52.6849H30.1893V50.5198Z" fill="black"/>
<path d="M33.1953 47.5157H31.0302V49.6808H33.1953V47.5157Z" fill="black"/>
<path d="M39.271 44.4479H37.106V46.613H39.271V44.4479Z" fill="black"/>
<path d="M21.0476 56.5955H18.8826V58.7606H21.0476V56.5955Z" fill="black"/>
<path d="M24.1136 56.5955H21.9485V58.7606H24.1136V56.5955Z" fill="black"/>
<path d="M24.1136 65.7372H21.9485V67.9023H24.1136V65.7372Z" fill="black"/>
<path d="M27.1215 53.5895H24.9564V55.7527H27.1215V53.5895Z" fill="black"/>
<path d="M30.1893 53.5895H28.0242V55.7527H30.1893V53.5895Z" fill="black"/>
<path d="M33.1953 50.5198H31.0302V52.6849H33.1953V50.5198Z" fill="black"/>
<path d="M36.2631 47.5157H34.0981V49.6808H36.2631V47.5157Z" fill="black"/>
<path d="M39.271 47.5157H37.106V49.6808H39.271V47.5157Z" fill="black"/>
<path d="M27.1215 56.5955H24.9564V58.7606H27.1215V56.5955Z" fill="black"/>
<path d="M30.1893 56.5955H28.0242V58.7606H30.1893V56.5955Z" fill="black"/>
<path d="M33.1953 53.5895H31.0302V55.7527H33.1953V53.5895Z" fill="black"/>
<path d="M36.2631 50.5198H34.0981V52.6849H36.2631V50.5198Z" fill="black"/>
<path d="M39.271 50.5198H37.106V52.6849H39.271V50.5198Z" fill="black"/>
<path d="M36.2631 53.5895H34.0981V55.7527H36.2631V53.5895Z" fill="black"/>
<path d="M39.271 53.5895H37.106V55.7527H39.271V53.5895Z" fill="black"/>
<path d="M36.2631 56.5955H34.0981V58.7606H36.2631V56.5955Z" fill="black"/>
<path d="M38.7298 57.1368H37.106V58.7606H38.7298V57.1368Z" fill="black"/>
<path d="M39.271 59.6634H37.106V61.8284H39.271V59.6634Z" fill="black"/>
<path d="M36.2631 61.8284H35.1806V62.911H36.2631V61.8284Z" fill="black"/>
<path d="M41.2544 60.7459H40.1719V61.8284H41.2544V60.7459Z" fill="black"/>
<path d="M42.337 62.6693H40.1719V64.8943H42.337V62.6693Z" fill="black"/>
<path d="M44.8036 63.2126H43.1798V64.8963H44.8036V63.2126Z" fill="black"/>
<path d="M45.3449 65.7372H43.1798V67.9023H45.3449V65.7372Z" fill="black"/>
<path d="M47.8714 65.7372H46.2476V67.361H47.8714V65.7372Z" fill="black"/>
<path d="M39.271 62.6693H37.106V64.8943H39.271V62.6693Z" fill="black"/>
<path d="M42.3369 65.7372H41.2544V66.8197H42.3369V65.7372Z" fill="black"/>
<path d="M45.3449 68.7451H43.1798V70.9701H45.3449V68.7451Z" fill="black"/>
<path d="M42.337 71.8129H40.1719V73.9761H42.337V71.8129Z" fill="black"/>
<path d="M39.271 69.8876H38.1885V70.972H39.271V69.8876Z" fill="black"/>
<path d="M39.271 71.8129H38.1885V72.8955H39.271V71.8129Z" fill="black"/>
<path d="M42.3389 69.2844H40.7151V70.9701H42.3389V69.2844Z" fill="black"/>
<path d="M36.2631 59.6634H34.6393V61.2872H36.2631V59.6634Z" fill="black"/>
<path d="M33.1953 59.6634H31.0302V61.8284H33.1953V59.6634Z" fill="black"/>
<path d="M32.654 63.2126H31.0302V64.8963H32.654V63.2126Z" fill="black"/>
<path d="M33.1953 65.7372H31.0302V67.9023H33.1953V65.7372Z" fill="black"/>
<path d="M30.1893 66.8197H29.1068V67.9042H30.1893V66.8197Z" fill="black"/>
<path d="M30.1893 64.6546H29.1068V65.7391H30.1893V64.6546Z" fill="black"/>
<path d="M32.1128 68.7451H31.0302V69.8876H32.1128V68.7451Z" fill="black"/>
<path d="M33.1972 56.5955H31.5734V58.2193H33.1972V56.5955Z" fill="black"/>
<path d="M29.1068 59.6634H28.0242V60.7459H29.1068V59.6634Z" fill="black"/>
<path d="M27.1215 59.6634H26.0389V60.7459H27.1215V59.6634Z" fill="black"/>
<path d="M18.0397 56.5955H15.8147V58.7606H18.0397V56.5955Z" fill="black"/>
<path d="M18.0398 52.6848H16.9572V53.7693H18.0398V52.6848Z" fill="black"/>
<path d="M18.0398 54.6721H16.9572V55.7546H18.0398V54.6721Z" fill="black"/>
<path d="M14.9719 56.5955H12.8068V58.7606H14.9719V56.5955Z" fill="black"/>
<path d="M11.9659 56.5955H9.74091V58.7606H11.9659V56.5955Z" fill="black"/>
<path d="M10.8834 54.6721H9.74091V55.7546H10.8834V54.6721Z" fill="black"/>
<path d="M8.89808 56.5955H6.733V58.7606H8.89808V56.5955Z" fill="black"/>
<path d="M8.89808 53.5895H6.733V55.7527H8.89808V53.5895Z" fill="black"/>
<path d="M5.83026 57.1368H4.20645V58.7606H5.83026V57.1368Z" fill="black"/>
<path d="M21.0476 59.6634H18.8826V61.8284H21.0476V59.6634Z" fill="black"/>
<path d="M23.031 59.6634H21.9485V60.7459H23.031V59.6634Z" fill="black"/>
<path d="M23.031 61.8284H21.9485V62.911H23.031V61.8284Z" fill="black"/>
<path d="M20.5064 62.6693H18.8826V64.2932H20.5064V62.6693Z" fill="black"/>
<path d="M18.0397 59.6634H15.8147V61.8284H18.0397V59.6634Z" fill="black"/>
<path d="M18.0397 62.6693H15.8147V64.8943H18.0397V62.6693Z" fill="black"/>
<path d="M16.9572 65.7372H15.8147V66.8197H16.9572V65.7372Z" fill="black"/>
<path d="M14.9719 59.6634H12.8068V61.8284H14.9719V59.6634Z" fill="black"/>
<path d="M14.9719 62.6693H12.8068V64.8943H14.9719V62.6693Z" fill="black"/>
<path d="M14.9719 65.7372H12.8068V67.9023H14.9719V65.7372Z" fill="black"/>
<path d="M11.9659 59.6634H9.74091V61.8284H11.9659V59.6634Z" fill="black"/>
<path d="M11.9659 62.6693H9.74091V64.8943H11.9659V62.6693Z" fill="black"/>
<path d="M11.9659 65.7372H9.74091V67.9023H11.9659V65.7372Z" fill="black"/>
<path d="M10.8234 68.7451H9.74091V69.8876H10.8234V68.7451Z" fill="black"/>
<path d="M8.89808 59.6634H6.733V61.8284H8.89808V59.6634Z" fill="black"/>
<path d="M8.89808 62.6693H6.733V64.8943H8.89808V62.6693Z" fill="black"/>
<path d="M8.89808 65.7372H6.733V67.9023H8.89808V65.7372Z" fill="black"/>
<path d="M8.89807 68.7451H7.27426V70.4288H8.89807V68.7451Z" fill="black"/>
<path d="M6.73302 68.7451H5.65048V69.8876H6.73302V68.7451Z" fill="black"/>
<path d="M5.83217 59.6634H3.66516V61.8284H5.83217V59.6634Z" fill="black"/>
<path d="M2.82428 61.0475H1.20047V62.6713H2.82428V61.0475Z" fill="black"/>
<path d="M5.83217 62.6693H3.66516V64.8943H5.83217V62.6693Z" fill="black"/>
<path d="M2.82428 63.2126H1.20047V64.8963H2.82428V63.2126Z" fill="black"/>
<path d="M5.83026 65.7372H4.20645V67.361H5.83026V65.7372Z" fill="black"/>
<path d="M3.66516 65.7372H2.04135V67.361H3.66516V65.7372Z" fill="black"/>
<path fill-rule="evenodd" clip-rule="evenodd" d="M34.0981 46.613H36.2631V44.4479H34.6993V45.1071H34.0981V46.613Z" fill="black"/>
<path d="M34.6992 39.936H29.5262V45.109H34.6992V39.936Z" fill="#EA1414"/>
<path d="M48.3953 41.3008H62.8317V45.024H53.7945V47.7941H62.1783V51.3491H53.7945V54.7862H63.0946V58.7355H48.3953V41.3008Z" fill="#EA1414"/>
<path d="M66.0677 58.7355V41.2989H75.047C76.7114 41.2989 77.9853 41.4419 78.8649 41.728C79.7464 42.0122 80.4539 42.5418 80.9952 43.3151C81.5326 44.0864 81.8032 45.0298 81.8032 46.1394C81.8032 47.1059 81.5983 47.9429 81.1846 48.6427C80.7729 49.3444 80.2065 49.9128 79.4835 50.3497C79.0234 50.628 78.3932 50.8581 77.591 51.0398C78.2328 51.2524 78.7006 51.467 78.9944 51.6816C79.1935 51.8246 79.4796 52.13 79.8547 52.5998C80.2316 53.0676 80.4829 53.4291 80.6105 53.6823L83.2202 58.7355H77.1329L74.2545 53.4059C73.891 52.7177 73.5663 52.2673 73.2802 52.0624C72.8916 51.7937 72.4489 51.6584 71.9579 51.6584H71.4824V58.7355H66.0677ZM71.4785 48.3644H73.7499C73.9954 48.3644 74.4729 48.2851 75.1765 48.1266C75.5342 48.0551 75.8261 47.8734 76.0503 47.5795C76.2765 47.2876 76.3905 46.9493 76.3905 46.5704C76.3905 46.0079 76.2108 45.5749 75.857 45.2733C75.4994 44.9718 74.8286 44.8229 73.8466 44.8229H71.4785V48.3644Z" fill="#EA1414"/>
<path d="M96.1082 51.6004L100.829 53.027C100.512 54.3512 100.011 55.4569 99.3307 56.3442C98.6503 57.2315 97.8036 57.9023 96.7925 58.3547C95.7835 58.8051 94.496 59.0332 92.9341 59.0332C91.0396 59.0332 89.4912 58.7567 88.2907 58.2058C87.0903 57.6568 86.0522 56.6883 85.1823 55.3004C84.3085 53.9143 83.8736 52.1397 83.8736 49.9766C83.8736 47.0924 84.6391 44.8751 86.174 43.3267C87.7069 41.7783 89.8778 41.005 92.6847 41.005C94.8807 41.005 96.607 41.4477 97.8635 42.335C99.12 43.2242 100.054 44.5871 100.665 46.4255L95.9072 47.4848C95.7409 46.9551 95.565 46.5646 95.3833 46.3191C95.0817 45.9055 94.7125 45.5884 94.2776 45.3681C93.8407 45.1457 93.3516 45.0336 92.8142 45.0336C91.5925 45.0336 90.6569 45.5246 90.0073 46.5067C89.5163 47.2354 89.2708 48.3818 89.2708 49.9398C89.2708 51.873 89.5627 53.1971 90.1504 53.9143C90.738 54.6296 91.5616 54.9891 92.6228 54.9891C93.6532 54.9891 94.4342 54.7011 94.96 54.1212C95.4877 53.5432 95.8704 52.7003 96.1082 51.6004Z" fill="#EA1414"/>
<path d="M109.06 41.3008H103.659V58.7355H109.06V41.3008Z" fill="#EA1414"/>
<path d="M111.985 52.9671L117.109 52.6462C117.222 53.4794 117.448 54.1134 117.79 54.5484C118.343 55.254 119.137 55.6058 120.168 55.6058C120.935 55.6058 121.529 55.426 121.944 55.0664C122.362 54.705 122.569 54.2874 122.569 53.8119C122.569 53.3614 122.369 52.9574 121.973 52.5998C121.577 52.2422 120.657 51.9058 119.213 51.5888C116.85 51.0591 115.165 50.3516 114.16 49.472C113.147 48.5925 112.638 47.4713 112.638 46.1065C112.638 45.2095 112.897 44.3648 113.415 43.5683C113.937 42.7719 114.716 42.1456 115.758 41.6894C116.8 41.2331 118.229 41.005 120.048 41.005C122.275 41.005 123.972 41.4207 125.143 42.25C126.311 43.0793 127.009 44.3957 127.231 46.2032L122.153 46.5009C122.018 45.716 121.733 45.1457 121.302 44.7881C120.871 44.4305 120.274 44.2527 119.512 44.2527C118.886 44.2527 118.414 44.386 118.097 44.6509C117.78 44.9176 117.622 45.2405 117.622 45.6213C117.622 45.8997 117.751 46.1471 118.014 46.3713C118.269 46.5994 118.871 46.814 119.824 47.0131C122.178 47.5215 123.866 48.0338 124.882 48.5538C125.901 49.0738 126.644 49.7175 127.106 50.485C127.569 51.2544 127.801 52.1165 127.801 53.0676C127.801 54.1849 127.492 55.2153 126.874 56.1587C126.257 57.102 125.391 57.8192 124.281 58.3044C123.172 58.7935 121.772 59.037 120.083 59.037C117.119 59.037 115.064 58.4668 113.922 57.3243C112.779 56.1818 112.136 54.7262 111.985 52.9671Z" fill="#EA1414"/>
</g>
<defs>
<clipPath id="clip0_28_3">
<rect width="129" height="73.9761" fill="white"/>
</clipPath>
</defs>
</svg>
